Coordinates
version=1
nRows=34
nColumns=38
inDegrees=no

Units are S.I. units (second, meters, Newtons, ...)
If the header above contains a line with 'inDegrees', this indicates whether rotational values are in degrees (yes) or radians (no).

endheader
time	pelvis_tilt	pelvis_list	pelvis_rotation	pelvis_tx	pelvis_ty	pelvis_tz	hip_flexion_r	hip_adduction_r	hip_rotation_r	knee_angle_r	ankle_angle_r	subtalar_angle_r	mtp_angle_r	hip_flexion_l	hip_adduction_l	hip_rotation_l	knee_angle_l	ankle_angle_l	subtalar_angle_l	mtp_angle_l	lumbar_extension	lumbar_bending	lumbar_rotation	arm_flex_r	arm_add_r	arm_rot_r	elbow_flex_r	pro_sup_r	wrist_flex_r	wrist_dev_r	arm_flex_l	arm_add_l	arm_rot_l	elbow_flex_l	pro_sup_l	wrist_flex_l	wrist_dev_l
20	-0.275088	1.38487	1.79544	0.75995	0.0252179	0.938542	0.64951	-0.152377	-0.0498916	0.851175	0.264282	0	0	0.560437	-0.00328449	-0.0471271	0.682731	-0.698132	0	0	-0.366047	-0.0521525	0.066731	0.211031	-0.256412	0.0130469	0.463444	1.46992	0	0	0.242386	-0.244605	0.273792	0.472937	1.42754	0	0
20.01	-0.281072	1.38696	1.79922	0.759898	0.0264945	0.942447	0.63448	-0.153587	-0.055714	0.828672	0.25606	0	0	0.541096	-0.000286523	-0.0401267	0.650982	-0.698132	0	0	-0.357665	-0.0523056	0.0689179	0.204403	-0.255346	0.0147119	0.466211	1.46726	0	0	0.235643	-0.243433	0.278327	0.476912	1.43013	0	0
20.02	-0.283828	1.3894	1.80017	0.759855	0.0278337	0.946269	0.619216	-0.154511	-0.0628469	0.806626	0.247911	0	0	0.521518	0.00205646	-0.0325502	0.619267	-0.698132	0	0	-0.348955	-0.0516511	0.070894	0.197898	-0.254261	0.0160035	0.468636	1.46548	0	0	0.228678	-0.242298	0.283094	0.480846	1.43298	0	0
20.03	-0.288089	1.39214	1.80268	0.759812	0.0291471	0.950035	0.603538	-0.155575	-0.0700095	0.784388	0.239773	0	0	0.500815	0.00505703	-0.0223299	0.585877	-0.698132	0	0	-0.340926	-0.0512584	0.0726781	0.191803	-0.253007	0.0175183	0.471355	1.46358	0	0	0.222203	-0.241451	0.287924	0.484611	1.4364	0	0
20.04	-0.312814	1.40068	1.82202	0.760284	0.0308172	0.954635	0.579755	-0.156533	-0.0744912	0.759393	0.231497	0	0	0.46888	0.00846602	-0.0144983	0.545424	-0.698132	0	0	-0.341576	-0.0547061	0.0768485	0.188446	-0.250424	0.0189791	0.473129	1.4612	0	0	0.218508	-0.241596	0.293145	0.488267	1.43934	0	0
20.05	-0.316702	1.40226	1.82519	0.760157	0.0319858	0.958055	0.56552	-0.158213	-0.0824165	0.737433	0.223387	0	0	0.448315	0.0130317	0.0043928	0.508867	-0.698132	0	0	-0.332672	-0.0540494	0.0774657	0.182497	-0.249203	0.0225224	0.47679	1.45664	0	0	0.212173	-0.241061	0.297683	0.492961	1.44182	0	0
20.06	-0.322497	1.40397	1.83016	0.760041	0.0331614	0.961378	0.551167	-0.16015	-0.0905888	0.715717	0.215564	0	0	0.426244	0.0180446	0.0277227	0.469809	-0.698132	0	0	-0.324312	-0.0537227	0.0779855	0.176777	-0.24792	0.0268975	0.48087	1.45094	0	0	0.206193	-0.240691	0.302245	0.497946	1.44452	0	0
20.07	-0.330132	1.40557	1.83675	0.759909	0.0343024	0.964575	0.537013	-0.162212	-0.0984913	0.694185	0.207984	0	0	0.402647	0.0235558	0.0575101	0.427714	-0.698132	0	0	-0.316245	-0.0537286	0.0785477	0.171372	-0.246712	0.0318769	0.485218	1.44516	0	0	0.200994	-0.240036	0.306319	0.501227	1.44685	0	0
20.08	-0.338612	1.40723	1.84381	0.759813	0.0354668	0.967644	0.522825	-0.164042	-0.106014	0.672692	0.200468	0	0	0.377379	0.028649	0.0927565	0.382674	-0.698132	0	0	-0.308254	-0.0538675	0.0794503	0.16619	-0.24542	0.0367549	0.489332	1.43934	0	0	0.196375	-0.239188	0.310623	0.50286	1.44748	0	0
20.09	-0.3463	1.40896	1.85008	0.759741	0.0367237	0.970572	0.508614	-0.165614	-0.113725	0.651459	0.193133	0	0	0.350429	0.0328158	0.134629	0.334504	-0.698132	0	0	-0.300079	-0.0537032	0.080346	0.160961	-0.244084	0.0414908	0.49308	1.43472	0	0	0.191438	-0.238404	0.314823	0.504631	1.4469	0	0
20.1	-0.378439	1.41292	1.88601	0.759563	0.0388826	0.973044	0.481943	-0.175398	-0.132305	0.618998	0.193183	0	0	0.316308	0.040468	0.188268	0.280978	-0.698132	0	0	-0.292787	-0.0565602	0.0754251	0.153024	-0.240054	0.0456086	0.496924	1.43034	0	0	0.183732	-0.241834	0.322608	0.510278	1.44279	0	0
20.11	-0.356741	1.4125	1.85806	0.759651	0.0392977	0.975939	0.480207	-0.166837	-0.128074	0.608752	0.179128	0	0	0.288256	0.0358444	0.252067	0.220878	-0.698132	0	0	-0.283289	-0.0522539	0.0819188	0.15092	-0.241835	0.0544078	0.499921	1.4227	0	0	0.181397	-0.236096	0.320072	0.508009	1.44815	0	0
20.12	-0.368098	1.41412	1.8721	0.759642	0.0411669	0.977569	0.458507	-0.17234	-0.144477	0.577927	0.178997	0	0	0.254744	0.0348344	0.324857	0.159683	-0.698132	0	0	-0.271897	-0.0524991	0.0788926	0.142416	-0.239311	0.0617772	0.504469	1.41598	0	0	0.172821	-0.239254	0.328434	0.51441	1.44231	0	0
20.13	-0.350272	1.41535	1.85103	0.760031	0.0423059	0.979562	0.446691	-0.166999	-0.148856	0.556838	0.171586	0	0	0.22478	0.02409	0.393102	0.0987572	-0.698132	0	0	-0.261425	-0.0486653	0.0824784	0.137412	-0.23922	0.0704055	0.50791	1.41043	0	0	0.167163	-0.237876	0.330297	0.51623	1.44114	0	0
20.14	-0.31776	1.41561	1.81585	0.760493	0.0433458	0.981219	0.436336	-0.159266	-0.153259	0.535683	0.163953	0	0	0.20064	0.00922543	0.454487	0.0448924	-0.698132	0	0	-0.249159	-0.0425127	0.0859124	0.13222	-0.239937	0.082009	0.511488	1.39878	0	0	0.160935	-0.236024	0.331113	0.518371	1.44084	0	0
20.15	-0.279257	1.41495	1.77497	0.760998	0.0443255	0.982639	0.426964	-0.150129	-0.15587	0.513988	0.155733	0	0	0.186941	-0.00407925	0.48358	0.0114375	-0.698132	0	0	-0.235604	-0.03529	0.0891948	0.126768	-0.240805	0.093225	0.515035	1.39223	0	0	0.154666	-0.233385	0.329542	0.519381	1.44235	0	0
20.16	-0.21732	1.41094	1.70752	0.761423	0.044336	0.984376	0.429992	-0.133974	-0.148958	0.503889	0.141691	0	0	0.186806	-0.0173118	0.483552	1.90086e-06	-0.698132	0	0	-0.221633	-0.0238602	0.0962624	0.12494	-0.242991	0.0988608	0.516341	1.39145	0	0	0.15181	-0.226768	0.327119	0.516404	1.44226	0	0
20.17	-0.215505	1.41131	1.70801	0.761958	0.046001	0.985119	0.411704	-0.134846	-0.161023	0.474366	0.14014	0	0	0.179601	-0.0191864	0.481786	4.54215e-07	-0.698132	0	0	-0.208365	-0.0231572	0.0933868	0.117388	-0.239648	0.107659	0.519742	1.3832	0	0	0.143041	-0.230196	0.329557	0.522749	1.44066	0	0
20.18	-0.156637	1.4076	1.64385	0.762387	0.0460216	0.986818	0.413344	-0.118502	-0.153112	0.463474	0.125423	0	0	0.180556	-0.0314572	0.476623	1.30524e-07	-0.698132	0	0	-0.195778	-0.0113784	0.0998995	0.116194	-0.242048	0.113899	0.521264	1.38092	0	0	0.140693	-0.223581	0.326789	0.520287	1.441	0	0
20.19	-0.133216	1.4057	1.61914	0.76282	0.046821	0.987898	0.405886	-0.111881	-0.154155	0.444907	0.118044	0	0	0.177629	-0.0373619	0.474447	0	-0.698132	0	0	-0.183801	-0.00625078	0.101112	0.112391	-0.240674	0.117791	0.523804	1.37957	0	0	0.135643	-0.222314	0.326338	0.523016	1.44071	0	0
20.2	-0.110866	1.40492	1.5952	0.7633	0.0477819	0.988979	0.396867	-0.105041	-0.154403	0.425903	0.110547	0	0	0.172922	-0.0434079	0.473506	0	-0.698132	0	0	-0.172739	-0.00120682	0.102453	0.108429	-0.239281	0.120969	0.526053	1.3772	0	0	0.130238	-0.221225	0.326095	0.526674	1.43984	0	0
20.21	-0.0834646	1.40669	1.56575	0.763735	0.0488226	0.989528	0.386017	-0.0929716	-0.152966	0.409261	0.101416	0	0	0.173302	-0.0421265	0.473915	0.000341295	-0.698132	0	0	-0.163258	0.00444154	0.103891	0.104188	-0.238038	0.12461	0.528526	1.37138	0	0	0.124169	-0.221042	0.327063	0.531202	1.4349	0	0
20.22	-0.0609716	1.40669	1.54254	0.764187	0.0495643	0.990514	0.376652	-0.0863424	-0.150877	0.391909	0.0927322	0	0	0.170994	-0.0466072	0.474064	0	-0.698132	0	0	-0.154659	0.00968275	0.104591	0.100465	-0.237941	0.132526	0.532237	1.35122	0	0	0.119356	-0.221779	0.33492	0.537231	1.41247	0	0
20.23	-0.0410882	1.40872	1.52066	0.764748	0.0504615	0.991503	0.364821	-0.0802007	-0.150914	0.374382	0.0867874	0	0	0.166244	-0.0504912	0.462528	0	-0.698132	0	0	-0.146929	0.0136957	0.106951	0.095541	-0.244429	0.177676	0.541577	1.24511	0	0	0.115439	-0.233229	0.397793	0.553645	1.25899	0	0
20.24	-0.0184847	1.40882	1.49819	0.765097	0.051287	0.992335	0.354997	-0.0745306	-0.15297	0.357363	0.080677	0	0	0.163465	-0.0551633	0.470745	0	-0.698132	0	0	-0.139367	0.0187445	0.106379	0.0930907	-0.237121	0.146396	0.539368	1.30752	0	0	0.110798	-0.224631	0.355753	0.550974	1.35712	0	0
20.25	0.00263772	1.40972	1.47615	0.765569	0.0522266	0.993164	0.344497	-0.0689946	-0.154503	0.34095	0.0753474	0	0	0.159779	-0.0593446	0.46926	0	-0.698132	0	0	-0.132506	0.0233387	0.106808	0.0906243	-0.230965	0.120842	0.537633	1.35852	0	0	0.106477	-0.218339	0.325884	0.550444	1.42614	0	0
20.26	0.077085	1.40886	1.39607	0.765781	0.0526896	0.995167	0.345959	-0.0578733	-0.165795	0.349149	0.0727483	0	0	0.157362	-0.0735239	0.463483	0	-0.698132	0	0	-0.129107	0.0399549	0.113682	0.0917372	-0.234261	0.113849	0.537691	1.36932	0	0	0.107763	-0.205491	0.309825	0.542213	1.44787	0	0
20.27	0.102877	1.41111	1.36934	0.766291	0.0537263	0.996028	0.33303	-0.0520389	-0.167976	0.332075	0.0678251	0	0	0.15168	-0.0781833	0.461721	0	-0.698132	0	0	-0.124224	0.0448439	0.114492	0.0888011	-0.232227	0.109381	0.538954	1.36924	0	0	0.104404	-0.204203	0.307115	0.545595	1.45252	0	0
20.28	0.132776	1.41419	1.33847	0.766849	0.0548562	0.996946	0.318308	-0.045624	-0.169199	0.313852	0.0625652	0	0	0.144767	-0.0832252	0.459611	0	-0.698132	0	0	-0.120756	0.0500688	0.115368	0.0864286	-0.230568	0.106522	0.539658	1.36697	0	0	0.101287	-0.202981	0.305033	0.549115	1.45528	0	0
20.29	0.159834	1.41736	1.31001	0.767431	0.0559578	0.997774	0.304897	-0.0400316	-0.169465	0.298218	0.058021	0	0	0.137702	-0.0875707	0.457523	0	-0.698132	0	0	-0.117411	0.0544395	0.116372	0.0841785	-0.228958	0.10453	0.540218	1.36411	0	0	0.098076	-0.202364	0.303816	0.553409	1.45727	0	0
20.3	0.181806	1.42009	1.28638	0.767999	0.0569765	0.998452	0.293886	-0.035503	-0.168967	0.285876	0.0544915	0	0	0.131267	-0.0910343	0.456138	0	-0.698132	0	0	-0.113337	0.0578384	0.117309	0.0818478	-0.227276	0.103307	0.540637	1.36106	0	0	0.0945028	-0.20227	0.302924	0.558257	1.45922	0	0
20.31	0.19817	1.42225	1.26835	0.7686	0.0580051	0.998974	0.285489	-0.0320973	-0.16812	0.276823	0.0518507	0	0	0.125809	-0.0936186	0.456041	0	-0.698132	0	0	-0.108443	0.0603025	0.118025	0.0795889	-0.225544	0.102315	0.540471	1.35945	0	0	0.0907062	-0.202591	0.302125	0.56338	1.46099	0	0
20.32	0.218015	1.42481	1.24697	0.76916	0.0590433	0.999524	0.275786	-0.0282325	-0.166852	0.266475	0.0487369	0	0	0.119704	-0.0964743	0.455893	0	-0.698132	0	0	-0.104227	0.0631301	0.118673	0.0776597	-0.224129	0.10169	0.539699	1.35925	0	0	0.0869059	-0.202789	0.301265	0.568438	1.4631	0	0
20.33	0.241531	1.42767	1.22209	0.769698	0.0601215	1.00009	0.265024	-0.0240067	-0.165021	0.255301	0.0453641	0	0	0.113064	-0.0995444	0.455127	0	-0.698132	0	0	-0.100583	0.0663057	0.119189	0.0759229	-0.222935	0.100917	0.53853	1.35999	0	0	0.0830414	-0.202775	0.300088	0.57363	1.46549	0	0
